<svg width="1108" height="411" viewBox="0 0 1108 411" fill="none" xmlns="http://www.w3.org/2000/svg">
<path d="M158.84 203.36L128.43 243.84C128.43 243.84 125.43 272.73 140.43 285.13C155.43 297.53 241.2 311 276.85 317.31C312.5 323.62 319.44 348.44 360.14 360.84C400.84 373.24 524.14 357.74 576.42 360.84C628.7 363.94 709.01 407.34 769.59 410.44C830.17 413.54 925.84 402.69 959.37 385.64C992.9 368.59 999.93 338.55 1015.79 324.9C1031.65 311.25 1050.34 312.79 1087.49 300.39C1124.64 287.99 1110.71 239.06 1024.23 239.06C937.59 239.06 158.84 203.36 158.84 203.36Z" fill="#F4CE90"/>
<path d="M396.41 236.55H391.47C384.92 171.34 379.75 105.99 382.61 40.44C384.157 38.7579 385.892 37.2582 387.78 35.97C384.46 103 389.72 169.86 396.41 236.55Z" fill="#AAAA41"/>
<path d="M459.41 239.06H148.94L152.72 216.2C155.72 197.96 159.56 174.53 160.46 168.65C161.99 158.65 191.96 135.59 194.27 128.65C196.58 121.71 230.39 60.6501 235.73 51.7601C239.99 44.6801 298.01 37.1801 304.16 34.8701C310.31 32.5601 320.3 16.45 324.16 11.05C325.45 9.25005 330.28 7.48008 336.4 5.89008C337.84 5.53008 339.4 5.14006 340.93 4.81006C352.63 2.17006 366.61 0.310059 370.21 0.310059C376.3 0.310059 416.38 56.4101 423.04 66.4001C426.28 71.2901 435.04 112.54 443.17 153.52C451.64 196.49 459.41 239.06 459.41 239.06Z" fill="#C4623B"/>
<path d="M263.55 209.47C263.05 210.38 248.15 239.06 248.15 239.06H206.47C206.47 239.06 239.39 232.64 242.19 231.38C244.99 230.12 263.55 209.47 263.55 209.47Z" fill="#A54D2F"/>
<path d="M443.15 153.56L393.8 202.56C393.8 202.56 389.63 192.42 384.02 178.86C374.51 155.86 360.83 123.06 356.33 113.67C355.76 112.47 355.2 111.67 355.07 111.27C354.02 108.1 352.73 67.5301 349.34 63.6001C345.95 59.6701 325.16 35.7301 325.16 35.7301L336.38 5.9101C337.82 5.5501 339.38 5.16008 340.91 4.83008C352.61 2.19008 366.59 0.330078 370.19 0.330078C376.28 0.330078 416.36 56.4301 423.02 66.4201C424.73 69.0001 428.02 81.8401 431.9 99.4201C434.69 111.84 437.75 126.63 440.81 141.87C441.59 145.76 442.37 149.66 443.15 153.56Z" fill="#A54D2F"/>
<path d="M440.81 141.89L384.02 178.89C374.51 155.89 360.83 123.09 356.33 113.7L431.33 96.7C434.12 109.12 437.75 126.65 440.81 141.89Z" fill="#99432B"/>
<path d="M266.41 140.72C266.41 140.72 316.92 140.38 321.6 140.72C326.28 141.06 356.33 131.35 356.33 131.35L347.69 144.73C347.69 144.73 323.27 147.41 319.26 147.73C315.25 148.05 266.41 140.72 266.41 140.72Z" fill="#A54D2F"/>
<path d="M597.89 239.06H248.15C248.15 239.06 250.07 235.22 252.74 229.97C257.54 220.55 264.86 206.51 268.16 201.8C275.87 190.8 322.16 167.27 322.16 167.27C322.16 167.27 357.98 124.55 360.16 122.27C360.82 121.58 362.35 120.89 364.63 120.27C390.34 112.59 510.16 106.47 510.16 106.47C510.16 106.47 541.16 136.32 546.16 144.99C551.16 153.66 556.16 182.31 556.16 187.32C556.16 191.76 589.25 229.32 596.51 237.54L597.89 239.06Z" fill="#C4623B"/>
<path d="M522.25 158.15L445.02 168.74L525.34 171.96L522.25 158.15Z" fill="#A54D2F"/>
<path d="M311.4 239.06H463.33C463.33 239.06 442.73 223.32 440.22 223.32C437.71 223.32 382.62 233.13 382.62 233.13L311.4 239.06Z" fill="#A54D2F"/>
<path d="M575.64 221.18L508 228.28H583.31L575.64 221.18Z" fill="#A54D2F"/>
<path d="M370.19 128.6C370.19 128.6 336.56 175.76 334.82 177C333.08 178.24 275.6 200.58 273.35 203.34C271.1 206.1 252.62 231.34 252.62 231.34L252.74 229.93C257.54 220.51 264.86 206.47 268.16 201.76C275.87 190.76 322.16 167.23 322.16 167.23C322.16 167.23 357.98 124.51 360.16 122.23C360.82 121.54 362.35 120.85 364.63 120.23L370.19 128.6Z" fill="#E5785C"/>
<path d="M596.51 237.5C569.84 222.5 526.16 197.69 524.3 194.39C521.57 189.62 505.91 148.79 499.79 144.95C493.67 141.11 396.32 152.87 390.89 150.38C385.46 147.89 363 126.32 360.14 122.27C368.33 113.69 510.14 106.43 510.14 106.43C510.14 106.43 541.14 136.28 546.14 144.95C551.14 153.62 556.14 182.27 556.14 187.28C556.16 191.72 589.25 229.31 596.51 237.5Z" fill="#A54D2F"/>
<path d="M340.91 4.8501C335.91 17.2401 325.7 41.9901 322.34 46.1901C317.84 51.8001 257.09 65.8701 252.62 67.5501C248.15 69.2301 228.41 123.26 223.34 130C218.27 136.74 184.52 162.61 180.02 165C176.87 166.71 161.6 197.07 152.72 216.15C155.72 197.91 159.56 174.48 160.46 168.6C161.99 158.6 191.96 135.54 194.27 128.6C196.58 121.66 230.39 60.6001 235.73 51.7101C239.99 44.6301 298.01 37.1301 304.16 34.8201C310.31 32.5101 320.3 16.4001 324.16 11.0001C325.73 8.87009 332.75 6.6801 340.91 4.8501Z" fill="#E5785C"/>
<path d="M321.24 80.3099L356.33 79.2399V70.1299L321.24 80.3099Z" fill="#A54D2F"/>
<path d="M258.06 109C258.06 109 296.41 106.3 301.76 106.43C307.11 106.56 327.63 109 327.63 109C327.63 109 287.94 110.26 282.81 110.52C277.68 110.78 258.06 109 258.06 109Z" fill="#A54D2F"/>
<path d="M188.48 176.32C188.48 176.32 226.84 173.62 232.19 173.74C237.54 173.86 268.45 176.32 268.45 176.32L221.08 178.88C216 179.14 188.48 176.32 188.48 176.32Z" fill="#A54D2F"/>
<path d="M353.65 197.55C353.65 197.55 366.25 180.07 368.29 179.61C370.33 179.15 408.29 178.25 407.11 179.61C405.93 180.97 375.11 183.93 371.02 186.2C366.93 188.47 353.65 197.55 353.65 197.55Z" fill="#E5785C"/>
<path d="M266.73 223.32C266.73 223.32 228.07 210.32 216.04 217.16C204.01 224 194.33 246.5 194.33 246.5H130.1C130.1 246.5 120.86 226.8 79.67 217.16C39.22 207.7 1.47 220 0 220.46C0.68 219.46 12 203.62 45.31 201.15C78.41 198.71 111.48 211.47 113.88 212.4C111.15 210.64 66.59 182.52 23.32 181.3C23.32 181.3 52.87 174.3 79.67 181.3C105.67 188.07 118.67 200.3 119.46 201.08C118.71 199.54 98.22 159.17 63.15 147.08C63.15 147.08 71.39 136.08 98.15 150.52C123.9 164.38 131.89 183.33 132.46 184.76C132.18 182.61 127.34 148.48 137.33 113.66C147.62 77.6601 185.33 71.8501 194.33 77.8701C203.33 83.8901 205.33 97.61 205.33 97.61C205.33 97.61 199.17 85.9301 181.98 89.3701C164.79 92.8101 155.18 114.12 153.14 127.84C151.35 139.77 148.52 171.26 147.8 179.39C148.8 170.65 153.93 134.9 173.42 121.68C195.73 106.57 222.03 113.68 222.03 113.68C222.03 113.68 191.64 118.9 181.33 134C171.33 148.65 166.53 174.87 166.25 176.52C167 175.02 179.39 150.87 204.68 141.52C227.43 133.14 252.29 144.06 258.27 147H258.34L259.63 147.68C259.63 147.68 224.63 147.68 209.48 155.6C194.83 163.26 186.66 180.13 186.16 181.21C187.16 180.49 206.72 167.02 230.8 171.04C255.51 175.19 259.63 184.79 259.63 184.79C259.63 184.79 225.28 179.31 211.56 187.55C198.23 195.55 190.71 211.37 190.28 212.37C191.43 211.84 215.11 200.05 237.67 201.37C260.78 202.73 266.73 223.32 266.73 223.32Z" fill="#D1C259"/>
<path d="M266.73 223.32C266.73 223.32 228.07 210.32 216.04 217.16C204.01 224 194.33 246.5 194.33 246.5H160.23C164.56 244.1 167.79 241.99 169.04 240.5C174.84 233.4 176.28 202.02 175.56 190.78C174.84 179.54 187.13 165.66 196.09 155.71C202.86 148.22 235.17 142.2 258.27 147.11H258.34L259.63 147.79C259.63 147.79 224.63 147.79 209.48 155.71C194.83 163.37 186.66 180.24 186.16 181.32C187.16 180.6 206.72 167.13 230.8 171.15C255.51 175.3 259.63 184.9 259.63 184.9C259.63 184.9 225.28 179.42 211.56 187.66C198.23 195.66 190.71 211.48 190.28 212.48C191.43 211.95 215.11 200.16 237.67 201.48C260.78 202.73 266.73 223.32 266.73 223.32Z" fill="#C6A847"/>
<path d="M1024.23 239.06H418.55C418.569 239.067 418.591 239.067 418.61 239.06C420.56 237.94 470.16 209.65 489.84 201.3C506.92 194.03 618.06 200.87 661.4 199.35L663.4 199.26C669.27 199.01 673.7 198.58 676.25 197.89C676.56 197.81 676.85 197.72 677.11 197.63C679.54 196.75 682.89 195.34 686.83 193.57H686.95C710.69 182.9 757.09 158.96 775.89 153.75C788.3 150.29 817.08 144.91 842.66 141.54C842.706 141.532 842.754 141.532 842.8 141.54C862.37 138.93 879.99 137.54 886.85 139.13C902.7 142.8 960.03 170.86 972.36 178.18C984.69 185.5 1024.23 239.06 1024.23 239.06Z" fill="#C4623B"/>
<path d="M945.33 239.06C945.64 231.13 944.56 223.18 939.33 221.81C928.4 218.94 884.23 211.81 879.94 206.81C875.65 201.81 903.63 181.69 900.74 179.52C897.85 177.35 842.81 141.52 842.81 141.52C862.38 138.91 880 137.52 886.86 139.11C902.71 142.78 960.04 170.84 972.37 178.16C984.7 185.48 1024.24 239.16 1024.24 239.16L945.33 239.06Z" fill="#A54D2F"/>
<path d="M812.25 239.06H750.66C750.66 239.06 746.48 227.67 740.66 225.18C734.84 222.69 698.36 231.87 692.55 230.64C686.74 229.41 689.89 217.64 686.6 215.54C683.31 213.44 663.34 199.32 663.39 199.23C669.26 198.98 673.69 198.55 676.24 197.86C687.39 204.58 707.73 216.31 709.24 216.94C712.16 218.2 741.37 218.94 746.35 220.63C751.33 222.32 758 228.5 761 231.82C764 235.14 812.25 239.06 812.25 239.06Z" fill="#A54D2F"/>
<path d="M498.86 208.68C493.94 209.17 420.86 238.25 418.61 239.03C420.56 237.91 470.16 209.62 489.84 201.27C506.92 194 618.06 200.84 661.4 199.32C661.4 199.32 503.84 208.17 498.86 208.68Z" fill="#E5785C"/>
<path d="M842.66 141.48C840.02 142.19 797.46 153.41 793.08 155.32C788.7 157.23 764.64 169.11 758.18 173.06C751.72 177.01 690 192.74 687 193.51C710.74 182.84 757.14 158.9 775.94 153.69C788.3 150.23 817.08 144.85 842.66 141.48Z" fill="#E5785C"/>
<path d="M590.01 239.03H783.2L755.86 234.36L745.55 222.26L627.67 230.64L590.01 239.03Z" fill="#A54D2F"/>
<path d="M862.89 239.03H960.05L950.72 218.44L913.53 216.42L862.89 239.03Z" fill="#A54D2F"/>
<path d="M775 203.27H859.88C860.88 203.27 829.58 193.75 824.58 194.27C819.58 194.79 775 203.27 775 203.27Z" fill="#A54D2F"/>
<path d="M583.68 217.3L639.28 218.44C639.28 218.44 620.05 213.16 618.17 213.16C616.29 213.16 583.68 217.3 583.68 217.3Z" fill="#A54D2F"/>
<path d="M503.4 234.07L560.88 233.13C560.88 233.13 547.88 228.99 545.24 228.99C542.6 228.99 503.4 234.07 503.4 234.07Z" fill="#A54D2F"/>
<path d="M362.11 248.53C362.11 248.53 515.52 249.85 529.11 248.53C542.7 247.21 540.53 236.01 535.65 231.23C535.65 231.23 537.41 216.23 525.48 211.62C513.55 207.01 507.12 211.62 507.12 211.62C507.12 211.62 506 197.85 495.9 196.11C485.8 194.37 476.54 204 476.54 204C476.54 204 467.62 200.52 460.54 204C453.46 207.48 452 221.34 452 221.34C452 221.34 447.69 216.81 437.69 220.81C434.807 221.969 432.288 223.879 430.392 226.341C428.496 228.803 427.294 231.727 426.91 234.81C423.775 232.096 420.05 230.149 416.032 229.125C412.014 228.101 407.812 228.027 403.76 228.91C389.44 231.74 387.23 241 387.23 241C387.23 241 367.92 234 362.11 248.53Z" fill="#576025"/>
<path d="M680.6 280C680.44 280.88 669.21 281.5 655.28 281.77C632.62 282.23 602.96 281.77 602.96 280C602.96 277.23 608.3 264.45 611.61 262.65C614.92 260.85 621.08 256.34 627.81 254.76C630.244 254.281 632.72 254.05 635.2 254.07C643.2 253.87 653.51 254.91 656.98 256.34C661.71 258.34 672.75 267.34 675.52 269.76C678.29 272.18 680.91 277.66 680.6 280Z" fill="#C4623B"/>
<path d="M680.6 280C680.44 280.88 669.21 281.5 655.28 281.77C655.21 276.23 654.63 268.26 652.2 264.77C649.93 261.46 641.62 257.12 635.2 254.08C643.2 253.88 653.51 254.92 656.98 256.35C661.71 258.35 672.75 267.35 675.52 269.77C678.29 272.19 680.91 277.66 680.6 280Z" fill="#A54D2F"/>
<path d="M366.44 272.45C366.29 273.34 355.05 273.95 341.12 274.22C318.46 274.69 259.85 274.45 259.85 272.72C259.85 269.95 295.51 263.4 297.85 260.46C302.79 254.31 306.9 248.79 313.63 247.21C316.064 246.736 318.54 246.505 321.02 246.52C329.02 246.33 339.33 247.37 342.8 248.79C347.53 250.79 358.57 259.79 361.34 262.22C364.11 264.65 366.75 270.11 366.44 272.45Z" fill="#C4623B"/>
<path d="M366.44 272.45C366.29 273.34 355.05 273.95 341.12 274.22C342.575 273.276 343.768 271.978 344.587 270.449C345.406 268.919 345.825 267.207 345.804 265.472C345.783 263.737 345.323 262.036 344.467 260.527C343.612 259.017 342.388 257.749 340.91 256.84C337.35 254.99 327.47 249.56 321.04 246.52C329.04 246.33 339.35 247.37 342.82 248.79C347.55 250.79 358.59 259.79 361.36 262.22C364.13 264.65 366.75 270.11 366.44 272.45Z" fill="#A54D2F"/>
<path d="M442.69 320.09C454.28 318.24 483.87 307.87 499.98 309.53C516.09 311.19 553.88 310.53 569.44 314.73C585 318.93 558.63 321.73 543.44 320.09C528.25 318.45 473.25 326.2 459.37 327.31C445.49 328.42 428.25 330.09 422.98 327.31C417.71 324.53 434.46 321.41 442.69 320.09Z" fill="#D6A75C"/>
<path d="M179.25 258.56C168.81 259.86 157.58 259.27 155.09 264.96C152.6 270.65 170.37 269.58 177.48 269.96C184.59 270.34 213.36 272.09 218.7 264.96C224.04 257.83 194.35 256.68 179.25 258.56Z" fill="#D6A75C"/>
<path d="M231.7 246.5C222.43 246.37 215.83 249.44 217.49 252.28C219.15 255.12 237.39 256.55 244.49 254.89C251.59 253.23 241.65 246.64 231.7 246.5Z" fill="#D6A75C"/>
<path d="M727 255.82C737.49 253.15 764.78 245.65 776.41 246.96C788.04 248.27 830.41 253.96 840.53 254.05C850.65 254.14 908.45 258.45 920.26 257.79C932.07 257.13 946.84 257.27 953.08 257.86C959.32 258.45 1000.32 252.54 993.43 256.48C986.54 260.42 932.73 263.7 907.43 265.01C882.13 266.32 850.43 264.01 832.81 263.7C815.19 263.39 776.37 259.76 776.37 259.76C776.37 259.76 718.76 265.15 709.25 265.41C699.74 265.67 718.52 258 727 255.82Z" fill="#D6A75C"/>
<path d="M724.05 322.81C735.78 321.4 762.93 317.81 774.97 317.35C787.01 316.89 825.61 320.29 838.2 322.81C850.79 325.33 837.02 327.31 821.2 328.81C805.38 330.31 780.66 329.92 750.03 331.18C719.4 332.44 705.12 333.28 699.25 331.18C693.38 329.08 707.77 324.75 724.05 322.81Z" fill="#D6A75C"/>
<path d="M708.18 311C701.43 311.19 698.07 315.33 700.4 317.34C702.73 319.35 710.12 318.44 714.21 317.34C718.3 316.24 715.18 310.77 708.18 311Z" fill="#D6A75C"/>
<path d="M824.06 337.8C816.87 338.38 817.84 344.22 820.76 345.19C823.68 346.16 837.86 351.02 843.11 347.91C848.36 344.8 851.67 338.77 845.06 337.8C838.45 336.83 828.92 337.41 824.06 337.8Z" fill="#D6A75C"/>
</svg>
